<?xml version="1.0" encoding="UTF-8" standalone="no"?>
<svg
   width="340"
   height="325"
   version="1.1"
   viewBox="0 0 340 325"
   id="svg11"
   sodipodi:docname="mmm.svg"
   xml:space="preserve"
   inkscape:version="1.3.2 (091e20e, 2023-11-25, custom)"
   xmlns:inkscape="http://www.inkscape.org/namespaces/inkscape"
   xmlns:sodipodi="http://sodipodi.sourceforge.net/DTD/sodipodi-0.dtd"
   xmlns="http://www.w3.org/2000/svg"
   xmlns:svg="http://www.w3.org/2000/svg"><defs
     id="defs11"><rect
       x="-26.683439"
       y="62.404819"
       width="60.25293"
       height="55.518772"
       id="rect12" /></defs><sodipodi:namedview
     id="namedview11"
     pagecolor="#ffffff"
     bordercolor="#000000"
     borderopacity="0.25"
     inkscape:showpageshadow="2"
     inkscape:pageopacity="0.0"
     inkscape:pagecheckerboard="0"
     inkscape:deskcolor="#d1d1d1"
     inkscape:zoom="2"
     inkscape:cx="205.75"
     inkscape:cy="182.25"
     inkscape:window-width="2560"
     inkscape:window-height="1494"
     inkscape:window-x="-11"
     inkscape:window-y="-11"
     inkscape:window-maximized="1"
     inkscape:current-layer="svg11" /><g
     transform="translate(186.70973,11.510885)"
     id="g11"><path
       d="M 121.59,60.83 107.66,56.34 C 98.75,53.4 93.53,46.19 91.08,37.13 L 84.95,7.27 C 84.79,6.68 84.4,5.89 83.2,5.89 c -1.01,0 -1.59,0.79 -1.75,1.38 L 75.32,37.14 C 72.86,46.2 67.65,53.41 58.74,56.35 l -13.93,4.49 c -1.97,0.64 -2,3.42 -0.04,4.09 l 14.03,4.83 c 8.88,2.95 14.06,10.15 16.52,19.17 l 6.14,29.53 c 0.16,0.59 0.49,1.65 1.75,1.65 1.33,0 1.59,-1.06 1.75,-1.65 L 91.1,88.93 C 93.56,79.9 98.74,72.7 107.62,69.76 l 14.03,-4.83 c 1.94,-0.68 1.91,-3.46 -0.06,-4.1 z"
       fill="#fde268"
       id="path5" /><path
       d="m 122.91,62.08 c -0.22,-0.55 -0.65,-1.03 -1.32,-1.25 L 107.66,56.34 C 98.75,53.4 93.53,46.19 91.08,37.13 L 84.95,7.27 C 84.86,6.93 84.54,6.31 84.17,6.13 l 1.98,29.97 c 1.47,13.68 2.73,20.12 13.65,22 9.38,1.62 20.23,3.48 23.11,3.98 z"
       fill="#fff38a"
       id="path6" /><path
       d="m 122.94,63.64 -24.16,5.54 c -8.51,2.16 -13.2,7.09 -13.2,19.99 l -2.37,30.94 c 0.81,-0.08 1.47,-0.52 1.75,-1.65 L 91.1,88.93 C 93.56,79.9 98.74,72.7 107.62,69.76 l 14.03,-4.83 c 0.66,-0.24 1.08,-0.73 1.29,-1.29 z"
       fill="#ffc729"
       id="path7" /><path
       d="M 41.81,86.81 C 33.48,84.06 32.72,80.96 31.32,75.73 L 27.83,63.49 c -0.21,-0.79 -2.27,-0.79 -2.49,0 L 22.97,74.8 c -1.41,5.21 -4.41,9.35 -9.53,11.04 l -8.16,3.54 c -1.13,0.37 -1.15,1.97 -0.02,2.35 l 8.22,2.91 c 5.1,1.69 8.08,5.83 9.5,11.02 l 2.37,10.82 c 0.22,0.79 2.27,0.79 2.48,0 l 2.78,-10.77 c 1.41,-5.22 3.57,-9.37 10.5,-11.07 l 7.72,-2.91 c 1.13,-0.39 1.12,-1.99 -0.02,-2.36 z"
       fill="#f5abb9"
       id="path8" /><path
       d="m 28.49,75.55 c 0.85,7.86 1.28,10.04 7.65,11.67 l 13.27,2.59 C 49.27,89.62 49.07,89.46 48.8,89.38 l -7,-2.57 C 34.49,84.31 32.47,81.13 31.1,74.77 29.73,68.41 28.27,64.26 28.27,64.26 c -0.51,-1.37 -1.24,-1.3 -1.24,-1.3 z"
       fill="#fbdae1"
       id="path9" /><path
       d="m 28.73,102.99 c 0,-7.41 4.05,-11.08 10.49,-11.08 L 49.24,91.5 c 0,0 -0.58,0.77 -1.59,1.01 l -6.54,2.13 c -5.55,2.23 -8.08,3.35 -9.8,10.94 0,0 -2.22,8.83 -2.64,9.76 -0.58,1.3 -1.27,1.57 -1.27,1.57 z"
       fill="#f07f95"
       id="path10" /><path
       d="m 59.74,28.14 c 0.56,-0.19 0.54,-0.99 -0.03,-1.15 l -7.72,-2.08 c -1.62,-0.44 -2.88,-1.69 -3.34,-3.3 L 45.61,9.06 C 45.46,8.45 44.59,8.45 44.44,9.07 l -2.86,12.5 c -0.44,1.66 -1.74,2.94 -3.4,3.37 l -7.67,1.99 c -0.57,0.15 -0.61,0.95 -0.05,1.15 l 8.09,2.8 c 1.45,0.5 2.57,1.68 3.01,3.15 l 2.89,11.59 c 0.15,0.6 1.01,0.61 1.16,0 L 48.6,33.99 c 0.45,-1.47 1.58,-2.64 3.04,-3.13 z"
       fill="#5bcffb"
       stroke="#5bcffb"
       stroke-miterlimit="10"
       id="path11" /></g><g
     id="g12"
     transform="rotate(12.235061,168.22998,193.47241)"><path
       style="fill:#e4eaee"
       d="m 23.45,62.3 c 0.72,-0.72 -1.27,-9.29 7.6,-15.91 8.87,-6.62 14.92,-2.67 15.77,-2.96 0.84,-0.28 4.79,-17.6 21.4,-22.1 16.61,-4.5 33.93,3.94 38.01,18.02 3.73,12.87 0.84,21.54 1.27,22.1 0.42,0.56 8.45,0.28 13.09,7.74 4.64,7.46 2.96,12.11 2.96,12.11 l -29.56,9.15 h -47.3 c 0,0 -41.67,-10.98 -42.09,-12.95 -0.42,-1.97 0.53,-8.37 7.32,-12.25 5.9,-3.37 10.26,-1.68 11.53,-2.95 z"
       id="path1-1" /><path
       style="fill:#bacdd2"
       d="m 35.16,92.84 c 0,0 -15.78,3.3 -26.45,-4.96 C 2.29,82.9 4.63,74.83 4.63,74.83 c 0,0 4.6,4.65 13.89,5.91 9.29,1.27 19.71,0.84 19.71,0.84 0,0 2.6,4.44 12.39,6.48 12.27,2.55 18.74,-3.73 18.74,-3.73 0,0 3.36,4.02 15.19,4.3 11.83,0.28 18.46,-7.98 19.57,-8.17 0.56,-0.09 3.82,2.87 10.28,1.83 6.15,-0.99 9.39,-3.66 9.39,-3.66 0,0 0.89,6.62 -5.3,10.7 -4.83,3.18 -13.23,3.52 -13.23,3.52 0,0 -1.28,4.91 -7.05,8.48 -5.36,3.33 -14.6,4.44 -21.44,2.4 -8.59,-2.56 -10.72,-6.47 -10.72,-6.47 0,0 -6.4,3.75 -16.4,2.48 -9.45,-1.18 -14.49,-6.9 -14.49,-6.9 z"
       id="path2-6" /></g><path
     id="text12"
     style="-inkscape-font-specification:'Atkinson Hyperlegible Bold';fill:#f5abb9;stroke-width:6.22504;stroke-linecap:round;stroke-linejoin:round;stroke-dasharray:6.22504, 49.8003;paint-order:stroke fill markers"
     d="m 137.67035,140.1931 c -12.48374,0 -23.33017,3.48881 -32.12304,8.53712 l 3.23242,8.65624 c 0.75433,2.02041 -0.29403,4.31598 -2.31445,5.07031 L 31.158637,190.57396 V 320.06615 H 84.76606 V 228.7185 c 0,-30.33132 9.522732,-46.90821 31.74219,-46.90821 25.04096,0 26.0996,20.45625 26.0996,45.14453 v 93.11133 h 53.96094 V 227.6599 c 0,-30.684 9.17035,-45.84961 31.03711,-45.84961 25.74635,0 27.1582,20.45625 27.1582,45.14453 v 93.11133 h 53.60742 V 213.55248 c 0,-47.26042 -14.10684,-73.35938 -58.89843,-73.35938 -24.68828,0 -46.55482,9.87551 -59.95703,29.27344 -8.11187,-19.04525 -23.98322,-29.27344 -51.84571,-29.27344 z"
     sodipodi:nodetypes="sccccccsssccsssccsscs" /><g
     id="path16"
     transform="matrix(0.71448968,-0.26676155,0.26676155,0.71448968,-10.764136,99.384665)" /><g
     id="g8"
     transform="matrix(0.71448968,-0.26676155,0.26676155,0.71448968,-10.764136,103.38466)"
     style="display:inline">
	<path
   style="fill:#f3ab47"
   d="M 88.24,9.65 V 7.35 C 88.24,5.5 89.74,4 91.59,4 h 22.62 c 1.85,0 3.35,1.5 3.35,3.35 v 8.26 0 c 1.2,0 2.17,0.97 2.17,2.17 V 92.1 H 8.26 V 18.81 c 0,-1.77 1.43,-3.2 3.2,-3.2 h 70.81 c 3.3,0 5.97,-2.67 5.97,-5.96 z"
   id="path1-4" />
	<path
   style="fill:#de7340"
   d="m 8.26,34.42 v -4.43 c 0,-1.62 1.31,-2.94 2.94,-2.94 h 105.6 c 1.62,0 2.94,1.31 2.94,2.94 v 4.43 z"
   id="path2-96" />
	<path
   style="fill:#ffca28"
   d="m 78.66,24.78 v -2.3 c 0,-1.85 -1.5,-3.35 -3.35,-3.35 H 52.69 c -1.85,0 -3.35,1.5 -3.35,3.35 v 2.3 c 0,3.29 -2.67,5.96 -5.96,5.96 H 11.46 c -1.77,0 -3.2,1.43 -3.2,3.2 v 75.94 H 119.73 V 33.94 c 0,-1.77 -1.43,-3.2 -3.2,-3.2 H 84.62 c -3.29,0 -5.96,-2.67 -5.96,-5.96 z"
   id="path3-3" />
	<path
   style="fill:#f3ab47"
   d="m 8.26,49.66 v -4.54 c 0,-1.62 1.31,-2.94 2.94,-2.94 h 105.6 c 1.62,0 2.94,1.31 2.94,2.94 v 4.43 z"
   id="path4-2" />
	<path
   style="fill:#ffe36c"
   d="m 39.76,39.9 v -2.3 c 0,-1.85 -1.5,-3.35 -3.35,-3.35 H 13.79 c -1.85,0 -3.35,1.5 -3.35,3.35 v 8.26 0 c -1.2,0 -2.17,0.97 -2.17,2.17 v 73.13 c 0,1.56 1.27,2.83 2.83,2.83 h 105.81 c 1.56,0 2.83,-1.27 2.83,-2.83 v -72.1 c 0,-1.77 -1.43,-3.2 -3.2,-3.2 H 45.72 c -3.29,0 -5.96,-2.67 -5.96,-5.96 z"
   id="path5-1" />
	<path
   style="fill:#f44336"
   d="m 39.76,39.9 v -2.3 c 0,-1.85 -1.5,-3.35 -3.35,-3.35 H 13.79 c -1.85,0 -3.35,1.5 -3.35,3.35 v 8.26 h 35.29 c -3.3,0 -5.97,-2.67 -5.97,-5.96 z"
   id="path6-1" />
	<path
   style="fill:#0288d1"
   d="m 78.66,24.78 v -2.3 c 0,-1.85 -1.5,-3.35 -3.35,-3.35 H 52.69 c -1.85,0 -3.35,1.5 -3.35,3.35 v 2.3 c 0,3.29 -2.67,5.96 -5.96,5.96 h 41.25 c -3.3,0 -5.97,-2.67 -5.97,-5.96 z"
   id="path7-8" />
	<path
   style="fill:#7cb342"
   d="M 117.56,15.07 V 7.35 C 117.56,5.5 116.06,4 114.21,4 H 91.59 c -1.85,0 -3.35,1.5 -3.35,3.35 v 2.3 c 0,2.41 -1.44,4.49 -3.5,5.42 z"
   id="path8-7" />
</g><g
     id="g7"
     transform="matrix(1.3749171,0,0,1.3749171,296.0296,-307.13981)">
	<g
   id="g6"
   style="fill:#5bcffb;fill-opacity:1"
   transform="translate(-4.6953166,-1.2520844)">
		<path
   style="fill:#5bcffb;fill-opacity:1"
   d="m -141.29222,296.50093 v -17.95 c 0,-0.38 -0.3,-0.68 -0.68,-0.68 h -8.88 -8.88 c -0.38,0 -0.68,0.3 -0.68,0.68 v 17.95 c 0,0.38 -0.31,0.68 -0.68,0.68 l -9.16,-0.02 c -0.58,0 -0.9,0.67 -0.52,1.12 l 19.4,19.52 c 0.27,0.33 0.77,0.33 1.05,0 l 19.4,-19.52 c 0.37,-0.44 0.05,-1.12 -0.52,-1.12 l -9.16,0.02 c -0.39,0 -0.69,-0.31 -0.69,-0.68 z"
   id="path1-6" />
		
	</g>
</g><g
     id="g19"
     transform="matrix(0.71448968,-0.26676155,0.26676155,0.71448968,-10.764136,99.384665)">
	
	
	
	
	
	
	
	
</g></svg>
